<svg xmlns="http://www.w3.org/2000/svg" version="1.1" width="1080" height="1000">
<path d="M0 0 C356.4 0 712.8 0 1080 0 C1080 356.4 1080 712.8 1080 1080 C723.6 1080 367.2 1080 0 1080 C0 723.6 0 367.2 0 0 Z " fill="#FE72B3" transform="translate(0,0)"/>
<path d="M0 0 C356.4 0 712.8 0 1080 0 C1080 91.74 1080 183.48 1080 278 C1072.2545211 271.36101808 1072.2545211 271.36101808 1069.375 267.4375 C1065.50936372 262.44156072 1061.2037928 258.08752542 1056.70410156 253.67529297 C1053.87639297 250.89594229 1051.15778482 248.11885791 1048.625 245.0625 C1042.14502062 237.42363262 1034.34647041 230.45697732 1026.53515625 224.19921875 C1025.69855469 223.47347656 1024.86195312 222.74773437 1024 222 C1024 221.34 1024 220.68 1024 220 C1023.46503906 219.78472656 1022.93007813 219.56945312 1022.37890625 219.34765625 C1019.13061692 217.50749235 1016.61586765 215.00152287 1013.9375 212.4375 C1008.99528009 207.78624577 1003.93713286 203.37294319 998.6328125 199.1328125 C996.61458052 197.49786493 994.64731195 195.83535398 992.6875 194.1328125 C988.868267 190.84486117 984.89287119 187.78982765 980.875 184.75 C979.37091469 183.60700642 977.86701026 182.46377479 976.36328125 181.3203125 C975.6254541 180.75989258 974.88762695 180.19947266 974.12744141 179.62207031 C971.63321421 177.72034372 969.15419077 175.79966397 966.67651367 173.87646484 C958.9935539 167.91929471 951.0876737 162.38851076 943 157 C941.73790438 156.14769322 940.47621107 155.2947905 939.21484375 154.44140625 C906.26475148 132.21726558 871.669052 113.32543708 835.76611328 96.33276367 C833.08369349 95.04032504 830.43453044 93.69455846 827.78515625 92.3359375 C823.53448405 90.19813547 819.26440323 88.54568813 814.75 87.0625 C809.45563036 85.26195967 804.30389194 83.33376726 799.1875 81.0625 C790.31029482 77.17746463 781.17456902 74.10235676 772 71 C770.92363281 70.63438965 769.84726562 70.2687793 768.73828125 69.89208984 C747.66318248 62.74590114 726.86147056 56.57665499 705.14404297 51.71435547 C702.37205842 51.08453509 699.60904523 50.42835689 696.84765625 49.75390625 C663.16777367 41.60280862 628.97077044 37.34364353 594.50450134 34.23448181 C592.84461566 34.07907642 591.18592794 33.91024905 589.52882385 33.72755432 C580.94708558 32.82591616 572.37236591 32.80053538 563.75390625 32.76171875 C562.93148563 32.75689547 562.10906502 32.75207218 561.26172256 32.74710274 C555.02865423 32.71097769 548.79566253 32.69518795 542.5625 32.6875 C541.64927097 32.68605484 540.73604195 32.68460968 539.79513931 32.68312073 C512.376069 32.64798204 485.28234876 33.10347551 458.06011963 36.72790527 C456.06542396 36.99135899 454.06861196 37.23863266 452.07177734 37.48535156 C444.01606844 38.4823924 436.00949107 39.68615451 428 41 C426.74832031 41.19787109 425.49664062 41.39574219 424.20703125 41.59960938 C355.73218428 52.44600396 287.11182145 73.20135946 225.45703125 105.20703125 C222.55539735 106.71194646 219.63248566 108.15574828 216.69165039 109.58178711 C197.19916441 119.10643824 178.13951137 129.82617159 159.99023438 141.70214844 C158.10160087 142.93374507 156.20248929 144.1464512 154.296875 145.3515625 C140.43368666 154.13049417 127.0858656 163.54584875 114.02197266 173.47070312 C111.9637117 175.02744626 109.89574384 176.57033469 107.82421875 178.109375 C97.33123581 185.90951212 87.1875858 193.94628003 77.51953125 202.76171875 C74.96795083 205.02847158 72.34828468 207.17540087 69.6875 209.3125 C60.78335026 216.52662699 52.37744364 224.36038058 44.48828125 232.671875 C43 234 43 234 41 234 C41 234.66 41 235.32 41 236 C39.4609375 237.48046875 39.4609375 237.48046875 37.375 239.1875 C34.07446077 241.98742834 31.23528229 244.86264128 28.51953125 248.2265625 C25.76321671 251.44344374 22.67892691 254.34130602 19.640625 257.2890625 C14.31465549 262.49319611 9.50023915 267.88535687 4.91015625 273.75 C3 276 3 276 0 278 C0 186.26 0 94.52 0 0 Z " fill="#042E1B" transform="translate(0,0)"/>
<path d="M0 0 C0.765625 1.71484375 0.765625 1.71484375 1 4 C-0.765625 6.25390625 -0.765625 6.25390625 -3.25 8.5625 C-4.05953125 9.32691406 -4.8690625 10.09132812 -5.703125 10.87890625 C-6.46109375 11.57886719 -7.2190625 12.27882812 -8 13 C-8.51046875 13.58652344 -9.0209375 14.17304688 -9.546875 14.77734375 C-11 16 -11 16 -15 16 C-15.33 17.32 -15.66 18.64 -16 20 C-16.66 20 -17.32 20 -18 20 C-18 20.66 -18 21.32 -18 22 C-18.66 22 -19.32 22 -20 22 C-20.33 23.32 -20.66 24.64 -21 26 C-21.99 26 -22.98 26 -24 26 C-24.2475 26.639375 -24.495 27.27875 -24.75 27.9375 C-26 30 -26 30 -28.125 30.75 C-29.053125 30.87375 -29.053125 30.87375 -30 31 C-27.8925942 27.18498564 -25.52641324 24.25605796 -22.4375 21.1875 C-21.65246094 20.39730469 -20.86742187 19.60710937 -20.05859375 18.79296875 C-18 17 -18 17 -16 17 C-16 16.34 -16 15.68 -16 15 C-14.53125 13.5546875 -14.53125 13.5546875 -12.5 11.875 C-8.09475988 8.1384124 -4.03400765 4.13056634 0 0 Z " fill="#D4759E" transform="translate(57,219)"/>
<path d="M0 0 C0 0.33 0 0.66 0 1 C-1.00675781 1.10546143 -2.01351562 1.21092285 -3.05078125 1.31958008 C-6.86854859 1.72126735 -10.68535277 2.13157388 -14.50195312 2.54418945 C-16.13842983 2.71996036 -17.7751432 2.89354483 -19.41210938 3.06469727 C-29.35352144 4.10585866 -39.09105739 5.45019516 -48.875 7.51831055 C-52 8 -52 8 -55 7 C-51.17010894 5.19769832 -48.21878192 4.80377759 -44 5 C-44 3.35 -44 1.7 -44 0 C-42.96875 0.165 -41.9375 0.33 -40.875 0.5 C-31.07468415 1.69263103 -21.68644502 1.07640826 -12 -0.62109375 C-7.79319284 -1.15242226 -4.16682291 -0.70624117 0 0 Z " fill="#1F2928" transform="translate(476,34)"/>
<path d="M0 0 C0 0.66 0 1.32 0 2 C-0.92683594 2.06058594 -1.85367188 2.12117188 -2.80859375 2.18359375 C-4.00613281 2.26738281 -5.20367187 2.35117187 -6.4375 2.4375 C-7.63246094 2.51871094 -8.82742188 2.59992187 -10.05859375 2.68359375 C-12.88570244 2.67656114 -12.88570244 2.67656114 -14 4 C-16.28808802 4.24179404 -18.57465815 4.38336599 -20.87109375 4.5234375 C-23.38472371 4.82873755 -23.38472371 4.82873755 -25 8 C-26.32 8 -27.64 8 -29 8 C-29 7.34 -29 6.68 -29 6 C-32.63 6 -36.26 6 -40 6 C-40 5.67 -40 5.34 -40 5 C-35.59045417 4.27988654 -31.17966076 3.56813112 -26.76757812 2.86376953 C-25.26982126 2.6234963 -23.77241519 2.38102487 -22.27539062 2.13623047 C-20.11158485 1.78280886 -17.94660041 1.43756536 -15.78125 1.09375 C-14.48251953 0.88427734 -13.18378906 0.67480469 -11.84570312 0.45898438 C-7.82472847 -0.02091864 -4.04316518 -0.0786608 0 0 Z " fill="#CC739B" transform="translate(456,37)"/>
<path d="M0 0 C1.32 0.66 2.64 1.32 4 2 C1.03 2.66 -1.94 3.32 -5 4 C-5 4.99 -5 5.98 -5 7 C-6.670625 7.4021875 -6.670625 7.4021875 -8.375 7.8125 C-13.3012741 9.0396543 -18.14827565 10.50869129 -23 12 C-23 12.66 -23 13.32 -23 14 C-25.375 14.625 -25.375 14.625 -28 15 C-28.66 14.34 -29.32 13.68 -30 13 C-26.3126339 11.39552543 -22.62508303 9.79147592 -18.9375 8.1875 C-17.89916016 7.73568359 -16.86082031 7.28386719 -15.79101562 6.81835938 C-13.76867086 5.93879991 -11.74446396 5.06350745 -9.71826172 4.19287109 C-8.07554309 3.47198702 -6.44289664 2.72653115 -4.83251953 1.93603516 C-3.00390625 1.05078125 -3.00390625 1.05078125 0 0 Z " fill="#E179A6" transform="translate(268,85)"/>
<path d="M0 0 C0.33 1.32 0.66 2.64 1 4 C-4.75 7 -4.75 7 -7 7 C-7 7.66 -7 8.32 -7 9 C-7.92232422 9.43699219 -7.92232422 9.43699219 -8.86328125 9.8828125 C-14.10061102 12.53906588 -16.84458283 14.29448395 -19 20 C-19.66 20.66 -20.32 21.32 -21 22 C-21 21.34 -21 20.68 -21 20 C-22.98 20.33 -24.96 20.66 -27 21 C-23.64276639 17.51434761 -20.20186164 14.5017775 -16.3125 11.625 C-15.27222656 10.85542969 -14.23195313 10.08585938 -13.16015625 9.29296875 C-8.81243078 6.13831504 -4.42525729 3.04481199 0 0 Z " fill="#E079A8" transform="translate(131,160)"/>
<path d="M0 0 C0.66 0.33 1.32 0.66 2 1 C1.67 1.66 1.34 2.32 1 3 C0.01 3 -0.98 3 -2 3 C-2 3.66 -2 4.32 -2 5 C-5.2491277 7.3208055 -8.05879291 8.43697042 -12 9 C-12 9.66 -12 10.32 -12 11 C-14.31 12.32 -16.62 13.64 -19 15 C-19.33 14.34 -19.66 13.68 -20 13 C-20.99 12.67 -21.98 12.34 -23 12 C-18.61923187 9.64990043 -14.23423289 7.30814749 -9.84228516 4.97900391 C-8.32328406 4.17179553 -6.80766007 3.35823551 -5.29296875 2.54296875 C-3.55993716 1.63304678 -1.78432635 0.80469619 0 0 Z " fill="#DA76A3" transform="translate(225,104)"/>
<path d="M0 0 C2.64 0 5.28 0 8 0 C8 0.66 8 1.32 8 2 C13.28 2 18.56 2 24 2 C24 2.33 24 2.66 24 3 C20.43884042 3.67396301 16.87587859 4.33787818 13.3125 5 C11.80139648 5.28617188 11.80139648 5.28617188 10.25976562 5.578125 C9.28330078 5.75859375 8.30683594 5.9390625 7.30078125 6.125 C6.40528564 6.29257812 5.50979004 6.46015625 4.5871582 6.6328125 C2.01987068 6.99717982 -0.41092013 7.06528807 -3 7 C-3 6.34 -3 5.68 -3 5 C-1.02 4.34 0.96 3.68 3 3 C2.01 2.67 1.02 2.34 0 2 C0 1.34 0 0.68 0 0 Z " fill="#192822" transform="translate(392,40)"/>
<path d="M0 0 C0.0825 0.598125 0.165 1.19625 0.25 1.8125 C1.21447422 4.6255498 2.56387278 5.37591519 5 7 C7 9 7 9 7 12 C8.32 12.66 9.64 13.32 11 14 C10.01 14.66 9.02 15.32 8 16 C7.57589844 15.56429687 7.15179687 15.12859375 6.71484375 14.6796875 C2.64764373 10.54991517 -1.55463788 6.71958871 -6 3 C-3 2 -3 2 0 2 C0 1.34 0 0.68 0 0 Z " fill="#232E29" transform="translate(1014,204)"/>
<path d="M0 0 C4.52615993 3.67832017 8.39424999 7.41086363 12 12 C8.14932689 11.47963877 6.68672299 10.68672299 4 8 C2.68 8 1.36 8 0 8 C-0.33 9.32 -0.66 10.64 -1 12 C-1.66 12 -2.32 12 -3 12 C-2.88541307 10.56163249 -2.75790884 9.12429034 -2.625 7.6875 C-2.55539062 6.88699219 -2.48578125 6.08648437 -2.4140625 5.26171875 C-2 3 -2 3 0 0 Z " fill="#F275AD" transform="translate(1027,224)"/>
<path d="M0 0 C-3.1244437 1.81346026 -6.24964866 3.6256045 -9.375 5.4375 C-10.26445312 5.95376953 -11.15390625 6.47003906 -12.0703125 7.00195312 C-12.92109375 7.49501953 -13.771875 7.98808594 -14.6484375 8.49609375 C-15.43395996 8.95169678 -16.21948242 9.4072998 -17.02880859 9.87670898 C-18.33298048 10.61989636 -19.65740795 11.32870397 -21 12 C-21.66 10.68 -22.32 9.36 -23 8 C-20.525 8.495 -20.525 8.495 -18 9 C-18 8.34 -18 7.68 -18 7 C-16.02 6.01 -14.04 5.02 -12 4 C-12.83333333 1.83333333 -12.83333333 1.83333333 -15 1 C-13.28415503 -0.71584497 -10.96799522 -0.40976422 -8.625 -0.625 C-7.15933594 -0.76808594 -7.15933594 -0.76808594 -5.6640625 -0.9140625 C-3 -1 -3 -1 0 0 Z " fill="#1F2A27" transform="translate(193,122)"/>
<path d="M0 0 C0.721875 0.33 1.44375 0.66 2.1875 1 C5.77931231 2.27708882 8.30787557 1.72394597 12 1 C9.0227105 2.98485967 6.35522279 4.11362255 3.01953125 5.3828125 C1.85615234 5.82753906 0.69277344 6.27226563 -0.50585938 6.73046875 C-1.72080078 7.19066406 -2.93574219 7.65085937 -4.1875 8.125 C-6.02731445 8.82689453 -6.02731445 8.82689453 -7.90429688 9.54296875 C-10.9349534 10.69862766 -13.96687951 11.85082691 -17 13 C-17 12.01 -17 11.02 -17 10 C-16.40832031 9.80664062 -15.81664062 9.61328125 -15.20703125 9.4140625 C-13.57979158 8.87784323 -11.9548486 8.33461409 -10.33203125 7.78515625 C-8.56186739 7.18917143 -6.78277799 6.61961812 -5 6.0625 C-2.79936868 5.18808618 -2.79936868 5.18808618 -2.3125 2.9375 C-2.209375 2.298125 -2.10625 1.65875 -2 1 C-1.34 0.67 -0.68 0.34 0 0 Z " fill="#262829" transform="translate(284,73)"/>
<path d="M0 0 C0.99 0.33 1.98 0.66 3 1 C0.81405921 2.73116808 -1.37369337 4.45996163 -3.5625 6.1875 C-4.17158203 6.67025391 -4.78066406 7.15300781 -5.40820312 7.65039062 C-9.52267291 10.89407315 -13.71571949 13.98391063 -18 17 C-17.625 15.0703125 -17.625 15.0703125 -17 13 C-15 11.875 -15 11.875 -13 11 C-12.67 10.34 -12.34 9.68 -12 9 C-11.34 9 -10.68 9 -10 9 C-9.67 7.35 -9.34 5.7 -9 4 C-3.375 2 -3.375 2 0 2 C0 1.34 0 0.68 0 0 Z " fill="#1D2B28" transform="translate(107,175)"/>
<path d="M0 0 C0.99 0.33 1.98 0.66 3 1 C-0.28470255 4.39419263 -3.70697152 7.61907735 -7.1875 10.8125 C-8.47720703 11.99779297 -8.47720703 11.99779297 -9.79296875 13.20703125 C-12 15 -12 15 -14 15 C-14 14.34 -14 13.68 -14 13 C-13.34 13 -12.68 13 -12 13 C-11.8453125 11.824375 -11.8453125 11.824375 -11.6875 10.625 C-11 8 -11 8 -8 6 C-8 5.34 -8 4.68 -8 4 C-5.36 3.01 -2.72 2.02 0 1 C0 0.67 0 0.34 0 0 Z " fill="#1F2C26" transform="translate(73,202)"/>
<path d="M0 0 C1.36237994 0.90825329 2.724551 1.81682081 4.0859375 2.7265625 C5.46301666 3.6427417 6.84366583 4.55356319 8.2265625 5.4609375 C12.30394735 8.14737501 16.25267705 10.85708398 20 14 C19.01 14.495 19.01 14.495 18 15 C17.236875 14.525625 16.47375 14.05125 15.6875 13.5625 C12.78071108 11.87250644 11.29066179 11.71794328 8 12 C7.566875 11.030625 7.13375 10.06125 6.6875 9.0625 C5.2985139 5.72268235 5.2985139 5.72268235 2 5 C2 4.34 2 3.68 2 3 C1.01 2.67 0.02 2.34 -1 2 C-0.67 1.34 -0.34 0.68 0 0 Z " fill="#E479A8" transform="translate(938,153)"/>
<path d="M0 0 C0.765625 1.71484375 0.765625 1.71484375 1 4 C-0.765625 6.25390625 -0.765625 6.25390625 -3.25 8.5625 C-4.05953125 9.32691406 -4.8690625 10.09132812 -5.703125 10.87890625 C-6.46109375 11.57886719 -7.2190625 12.27882812 -8 13 C-8.53109375 13.58652344 -9.0621875 14.17304688 -9.609375 14.77734375 C-11 16 -11 16 -14 16 C-12.34136495 11.67495164 -9.128959 8.90581175 -5.875 5.75 C-5.31167969 5.19570312 -4.74835937 4.64140625 -4.16796875 4.0703125 C-2.78313972 2.70895515 -1.39216796 1.35385141 0 0 Z " fill="#E57CA9" transform="translate(57,219)"/>
<path d="M0 0 C-0.66 2.31 -1.32 4.62 -2 7 C-2.94875 7.103125 -3.8975 7.20625 -4.875 7.3125 C-8.29107501 7.68539295 -8.29107501 7.68539295 -10 11 C-13.23349228 12.85753812 -15.24413583 14 -19 14 C-16.91784697 12.22776281 -14.83433081 10.45717274 -12.75 8.6875 C-12.16347656 8.18798828 -11.57695313 7.68847656 -10.97265625 7.17382812 C-2.51609065 0 -2.51609065 0 0 0 Z " fill="#E475A9" transform="translate(104,181)"/>
<path d="M0 0 C10.55808656 1.92710706 10.55808656 1.92710706 15 4 C15 4.33 15 4.66 15 5 C13.845 4.979375 12.69 4.95875 11.5 4.9375 C7.25649453 4.92992231 3.19823356 5.40025235 -1 6 C-1 2 -1 2 0 0 Z " fill="#EE77AB" transform="translate(754,65)"/>
<path d="M0 0 C-0.33 0.99 -0.66 1.98 -1 3 C-3.3125 4.0625 -3.3125 4.0625 -6 5 C-6.59683594 5.33644531 -7.19367188 5.67289062 -7.80859375 6.01953125 C-10.50106307 7.2241833 -12.81456259 7.4153259 -15.75 7.625 C-16.73484375 7.69976562 -17.7196875 7.77453125 -18.734375 7.8515625 C-19.48203125 7.90054688 -20.2296875 7.94953125 -21 8 C-18.62709204 6.41806136 -16.88037799 5.46910132 -14.27734375 4.4921875 C-13.57416016 4.22792969 -12.87097656 3.96367188 -12.14648438 3.69140625 C-11.41751953 3.42199219 -10.68855469 3.15257813 -9.9375 2.875 C-9.20466797 2.59785156 -8.47183594 2.32070312 -7.71679688 2.03515625 C-2.25796644 0 -2.25796644 0 0 0 Z " fill="#E876A8" transform="translate(309,70)"/>
<path d="M0 0 C4.95532767 3.86757281 8.96476648 8.18876004 13 13 C12.34 13.66 11.68 14.32 11 15 C9.02 14.34 7.04 13.68 5 13 C5.33 11.68 5.66 10.36 6 9 C5.34 9 4.68 9 4 9 C4 8.01 4 7.02 4 6 C3.01 5.67 2.02 5.34 1 5 C0.67 3.35 0.34 1.7 0 0 Z " fill="#DF75A4" transform="translate(1046,242)"/>
<path d="M0 0 C2.8125 -0.3125 2.8125 -0.3125 6 0 C7.6875 2.5 7.6875 2.5 9 5 C9.99 5 10.98 5 12 5 C12.99 6.485 12.99 6.485 14 8 C15.32 8 16.64 8 18 8 C17.67 8.99 17.34 9.98 17 11 C17.66 11.33 18.32 11.66 19 12 C18.67 12.66 18.34 13.32 18 14 C17.20335937 13.39671875 16.40671875 12.7934375 15.5859375 12.171875 C14.51569089 11.36449598 13.44537465 10.55720925 12.375 9.75 C11.33085938 8.96109375 10.28671875 8.1721875 9.2109375 7.359375 C7.02721915 5.75479364 4.8674012 4.23888638 2.6015625 2.765625 C1.74304688 2.18296875 0.88453125 1.6003125 0 1 C0 0.67 0 0.34 0 0 Z " fill="#362F34" transform="translate(953,163)"/>
<path d="M0 0 C5.54050113 0.56825653 10.03715966 2.62886517 15 5 C12.06171403 7.50298434 9.82097239 8.46930939 6 9 C5.938125 8.05125 5.87625 7.1025 5.8125 6.125 C5.544375 5.09375 5.27625 4.0625 5 3 C2.53744315 1.54708727 2.53744315 1.54708727 0 1 C0 0.67 0 0.34 0 0 Z " fill="#EC77AB" transform="translate(794,79)"/>
<path d="M0 0 C1.75070517 0.11470137 3.50057536 0.24219028 5.25 0.375 C6.22453125 0.44460937 7.1990625 0.51421875 8.203125 0.5859375 C10.89633189 0.98465249 12.66963279 1.63507063 15 3 C15 3.66 15 4.32 15 5 C15.99 5.33 16.98 5.66 18 6 C13.65825558 5.32036523 9.40296481 4.44151215 5.125 3.4375 C3.97257813 3.16808594 2.82015625 2.89867187 1.6328125 2.62109375 C0.76398437 2.41613281 -0.10484375 2.21117187 -1 2 C-0.67 1.34 -0.34 0.68 0 0 Z " fill="#262D2C" transform="translate(716,52)"/>
<path d="M0 0 C0 4.17582489 -2.26206035 6.12084856 -5 9 C-7.0625 10.9375 -7.0625 10.9375 -9 12 C-10.32 11.67 -11.64 11.34 -13 11 C-8.71 7.37 -4.42 3.74 0 0 Z " fill="#E47AA9" transform="translate(77,202)"/>
<path d="M0 0 C0 0.66 0 1.32 0 2 C-0.66 2.66 -1.32 3.32 -2 4 C-2.33 4.99 -2.66 5.98 -3 7 C-5.64 7.33 -8.28 7.66 -11 8 C-11.33 7.34 -11.66 6.68 -12 6 C-10.37829621 4.99466333 -8.75252763 3.99588093 -7.125 3 C-5.76761719 2.1646875 -5.76761719 2.1646875 -4.3828125 1.3125 C-2 0 -2 0 0 0 Z " fill="#E274A4" transform="translate(202,117)"/>
<path d="M0 0 C7.27646454 -0.49331963 7.27646454 -0.49331963 10.75 1.875 C11.4925 2.57625 12.235 3.2775 13 4 C14.31138904 4.70885894 15.63777017 5.39456452 17 6 C16.67 6.66 16.34 7.32 16 8 C10.72 5.69 5.44 3.38 0 1 C0 0.67 0 0.34 0 0 Z " fill="#2A2929" transform="translate(828,92)"/>
<path d="M0 0 C1.4370809 -0.05422947 2.87475462 -0.09289723 4.3125 -0.125 C5.11300781 -0.14820313 5.91351563 -0.17140625 6.73828125 -0.1953125 C9 0 9 0 12 2 C5.565 3.98 5.565 3.98 -1 6 C-1 4 -1 4 1 2 C0.67 1.34 0.34 0.68 0 0 Z " fill="#192C27" transform="translate(329,58)"/>
<path d="M0 0 C5.75 1.75 5.75 1.75 8 4 C8.53625 4.495 9.0725 4.99 9.625 5.5 C11 7 11 7 11 9 C11.66 9 12.32 9 13 9 C13.33 10.32 13.66 11.64 14 13 C12.34049923 11.57757077 10.68126579 10.15484775 9.0234375 8.73046875 C7.67961097 7.5812117 6.33066453 6.43791326 4.9765625 5.30078125 C4.34492187 4.76839844 3.71328125 4.23601562 3.0625 3.6875 C2.47597656 3.19636719 1.88945313 2.70523438 1.28515625 2.19921875 C0.86105469 1.80347656 0.43695312 1.40773437 0 1 C0 0.67 0 0.34 0 0 Z " fill="#292629" transform="translate(1036,232)"/>
<path d="M0 0 C1.32 0.33 2.64 0.66 4 1 C2.54782324 2.50596108 1.08807139 4.00462104 -0.375 5.5 C-1.18710937 6.3353125 -1.99921875 7.170625 -2.8359375 8.03125 C-5 10 -5 10 -7 10 C-7.33 10.66 -7.66 11.32 -8 12 C-8.33 11.01 -8.66 10.02 -9 9 C-7.68 8.67 -6.36 8.34 -5 8 C-4.67 6.68 -4.34 5.36 -4 4 C-3.01 4 -2.02 4 -1 4 C-0.67 2.68 -0.34 1.36 0 0 Z " fill="#2C2A2D" transform="translate(48,224)"/>
<path d="M0 0 C1.32 0.66 2.64 1.32 4 2 C3.67 3.65 3.34 5.3 3 7 C1.0625 6.625 1.0625 6.625 -1 6 C-1.33 5.34 -1.66 4.68 -2 4 C-2.598125 4.515625 -3.19625 5.03125 -3.8125 5.5625 C-4.534375 6.036875 -5.25625 6.51125 -6 7 C-6.99 6.67 -7.98 6.34 -9 6 C-6.03 4.02 -3.06 2.04 0 0 Z " fill="#E374A6" transform="translate(153,145)"/>
<path d="M0 0 C3.3 1.65 6.6 3.3 10 5 C6 8 6 8 3.8125 7.8125 C2 7 2 7 1 5 C1.66 5 2.32 5 3 5 C3 4.34 3 3.68 3 3 C2.01 2.67 1.02 2.34 0 2 C0 1.34 0 0.68 0 0 Z " fill="#E577A7" transform="translate(880,118)"/>
<path d="M0 0 C0 0.33 0 0.66 0 1 C-2.74755487 1.69888677 -5.49731197 2.3843988 -8.25 3.0625 C-9.02730469 3.26166016 -9.80460937 3.46082031 -10.60546875 3.66601562 C-11.35957031 3.84970703 -12.11367188 4.03339844 -12.890625 4.22265625 C-13.58188477 4.39547119 -14.27314453 4.56828613 -14.98535156 4.74633789 C-17.25070809 5.03156637 -18.8368312 4.68076195 -21 4 C-14.65939616 -0.22706923 -7.41567962 -0.2354184 0 0 Z " fill="#23292A" transform="translate(373,51)"/>
<path d="M0 0 C-4.28735783 2.85823855 -9.0311969 3.80748725 -14 5 C-14 4.34 -14 3.68 -14 3 C-14.66 2.67 -15.32 2.34 -16 2 C-14.08654673 1.46748234 -12.1690705 0.94940517 -10.25 0.4375 C-9.18265625 0.14746094 -8.1153125 -0.14257812 -7.015625 -0.44140625 C-4.15664073 -0.97098494 -2.68402617 -0.98370862 0 0 Z " fill="#D877A4" transform="translate(398,47)"/>
<path d="M0 0 C6.75 2.75 6.75 2.75 9 5 C9 5.99 9 6.98 9 8 C4.56541027 6.6062718 2.12621626 4.39417765 -1 1 C-0.67 0.67 -0.34 0.34 0 0 Z " fill="#322D2D" transform="translate(940,152)"/>
<path d="M0 0 C-0.66 1.32 -1.32 2.64 -2 4 C-3.32 4 -4.64 4 -6 4 C-6 3.34 -6 2.68 -6 2 C-9.63 2 -13.26 2 -17 2 C-17 1.67 -17 1.34 -17 1 C-11.27959989 0.1679418 -5.77759884 -0.12036664 0 0 Z " fill="#E676A6" transform="translate(433,41)"/>
<path d="M0 0 C2.475 0.99 2.475 0.99 5 2 C5 2.99 5 3.98 5 5 C3.375 5.6875 3.375 5.6875 1 6 C-2.25 4.5625 -2.25 4.5625 -5 3 C-5 2.67 -5 2.34 -5 2 C-3.35 2 -1.7 2 0 2 C0 1.34 0 0.68 0 0 Z " fill="#132C20" transform="translate(1009,201)"/>
<path d="M0 0 C0 0.66 0 1.32 0 2 C-2.31 3.32 -4.62 4.64 -7 6 C-7.33 5.34 -7.66 4.68 -8 4 C-8.99 3.67 -9.98 3.34 -11 3 C-7.14243493 0.84694043 -4.44870215 -0.39253254 0 0 Z " fill="#E676A9" transform="translate(213,113)"/>
<path d="M0 0 C-1.19458008 1.49536133 -1.19458008 1.49536133 -3 3 C-5.26831055 3.2487793 -5.26831055 3.2487793 -7.88671875 3.07421875 C-8.82451172 3.01943359 -9.76230469 2.96464844 -10.72851562 2.90820312 C-11.70498047 2.83537109 -12.68144531 2.76253906 -13.6875 2.6875 C-14.67556641 2.62626953 -15.66363281 2.56503906 -16.68164062 2.50195312 C-19.12236119 2.34867116 -21.56119089 2.18082846 -24 2 C-24 1.67 -24 1.34 -24 1 C-21.50018262 0.8301095 -19.00020399 0.66402047 -16.5 0.5 C-15.80390625 0.45230469 -15.1078125 0.40460937 -14.390625 0.35546875 C-9.58304475 0.04386633 -4.81771254 -0.04340282 0 0 Z " fill="#DA7BA6" transform="translate(500,33)"/>
<path d="M0 0 C3.3125 0.625 3.3125 0.625 7 2 C8.9375 5.125 8.9375 5.125 10 8 C7 8 7 8 5.17578125 6.50390625 C4.56089844 5.86324219 3.94601562 5.22257813 3.3125 4.5625 C2.68988281 3.92441406 2.06726562 3.28632813 1.42578125 2.62890625 C0 1 0 1 0 0 Z " fill="#2F292E" transform="translate(1054,250)"/>
<path d="M0 0 C1.1055189 0.93590504 2.20935453 1.87379858 3.3125 2.8125 C3.92738281 3.33457031 4.54226563 3.85664063 5.17578125 4.39453125 C6.85424679 5.87172469 8.43882034 7.40039131 10 9 C8.68 9.33 7.36 9.66 6 10 C5.67 9.01 5.34 8.02 5 7 C4.34 7 3.68 7 3 7 C1.61767557 5.37373596 0.28062485 3.7074998 -1 2 C-0.67 1.34 -0.34 0.68 0 0 Z " fill="#E577A5" transform="translate(1014,212)"/>
<path d="M0 0 C1.65 0 3.3 0 5 0 C5.66 2.31 6.32 4.62 7 7 C7.99 7 8.98 7 10 7 C9.67 8.32 9.34 9.64 9 11 C8.443125 10.278125 7.88625 9.55625 7.3125 8.8125 C5.01744765 5.92843935 5.01744765 5.92843935 2.25 3.25 C1.5075 2.5075 0.765 1.765 0 1 C0 0.67 0 0.34 0 0 Z " fill="#322D2F" transform="translate(1070,267)"/>
<path d="M0 0 C3.98381075 2.16264012 6.88983545 4.71211176 10 8 C7.625 8.125 7.625 8.125 5 8 C4.34 7.34 3.68 6.68 3 6 C2.34 5.67 1.68 5.34 1 5 C0.375 2.4375 0.375 2.4375 0 0 Z " fill="#E678A9" transform="translate(980,184)"/>
<path d="M0 0 C-0.33 1.65 -0.66 3.3 -1 5 C-4.45925163 3.7508258 -7.14693203 2.32472205 -10 0 C-6.33694766 -0.74926071 -3.57644848 -1.2380014 0 0 Z " fill="#1E2D27" transform="translate(900,123)"/>
<path d="M0 0 C0.99 1.32 1.98 2.64 3 4 C1.25 6.0625 1.25 6.0625 -1 8 C-2.32 7.67 -3.64 7.34 -5 7 C-3.35 4.69 -1.7 2.38 0 0 Z " fill="#102C22" transform="translate(54,216)"/>
<path d="M0 0 C5.70709064 0.46588495 9.15939723 1.93757784 14 5 C13.34 5.66 12.68 6.32 12 7 C9.875 6.625 9.875 6.625 8 6 C8 5.34 8 4.68 8 4 C7.01 3.67 6.02 3.34 5 3 C3.33066942 2.3400321 1.6635479 1.67441131 0 1 C0 0.67 0 0.34 0 0 Z " fill="#D476A0" transform="translate(816,88)"/>
<path d="M0 0 C1.41750563 0.11509661 2.83401169 0.24253658 4.25 0.375 C5.03890625 0.44460937 5.8278125 0.51421875 6.640625 0.5859375 C9.10747896 1.0188622 10.8099392 1.81447122 13 3 C13.99 3.33 14.98 3.66 16 4 C15.67 4.66 15.34 5.32 15 6 C10 4.33333333 5 2.66666667 0 1 C0 0.67 0 0.34 0 0 Z " fill="#382F36" transform="translate(806,83)"/>
<path d="M0 0 C0.66 0.33 1.32 0.66 2 1 C-1.75 4 -1.75 4 -4 4 C-4 4.66 -4 5.32 -4 6 C-6.375 6.625 -6.375 6.625 -9 7 C-9.66 6.34 -10.32 5.68 -11 5 C-9.21289414 4.13633178 -7.4201535 3.28431406 -5.625 2.4375 C-4.62726563 1.96183594 -3.62953125 1.48617187 -2.6015625 0.99609375 C-1.74304688 0.66738281 -0.88453125 0.33867188 0 0 Z " fill="#D278A2" transform="translate(249,93)"/>
<path d="M0 0 C1.12894876 0.93274109 2.25300876 1.87140122 3.375 2.8125 C4.00148438 3.33457031 4.62796875 3.85664063 5.2734375 4.39453125 C7 6 7 6 9 9 C5.45529741 8.70460812 4.21784705 8.22373481 1.6875 5.625 C0 3 0 3 0 0 Z " fill="#E679A9" transform="translate(1030,227)"/>
<path d="M0 0 C1.98 0.66 3.96 1.32 6 2 C5.01 2.495 5.01 2.495 4 3 C4 3.66 4 4.32 4 5 C5.32 5.33 6.64 5.66 8 6 C7.34 6.66 6.68 7.32 6 8 C3.69 6.02 1.38 4.04 -1 2 C-0.67 1.34 -0.34 0.68 0 0 Z " fill="#292F2D" transform="translate(984,184)"/>
<path d="M0 0 C3.63 1.98 7.26 3.96 11 6 C9.68 6.33 8.36 6.66 7 7 C7 6.34 7 5.68 7 5 C4.69 4.67 2.38 4.34 0 4 C0 2.68 0 1.36 0 0 Z " fill="#DC79A6" transform="translate(891,124)"/>
<path d="M0 0 C3.29714793 0.32971479 4.6226839 0.6226839 7 3 C4.03 3.66 1.06 4.32 -2 5 C-2 2 -2 2 0 0 Z " fill="#202827" transform="translate(306,66)"/>
<path d="M0 0 C0.33 1.32 0.66 2.64 1 4 C-1.65737657 6.18284504 -3.65569263 7.27633685 -7 8 C-6.02133662 6.85373678 -5.04205413 5.70800212 -4.0625 4.5625 C-3.51722656 3.92441406 -2.97195312 3.28632813 -2.41015625 2.62890625 C-1.63204305 1.73008851 -0.84063472 0.84063472 0 0 Z " fill="#D1769E" transform="translate(57,219)"/>
<path d="M0 0 C0.33 0.66 0.66 1.32 1 2 C-1.34407102 5.51610654 -3.16854912 6.35794962 -7 8 C-7.99 8 -8.98 8 -10 8 C-6.7 5.36 -3.4 2.72 0 0 Z " fill="#D07AA2" transform="translate(95,187)"/>
<path d="M0 0 C3.12290635 0.48578543 5.99580359 0.9986012 9 2 C7.3767313 2.6708712 5.75132422 3.33657029 4.125 4 C2.76761719 4.556875 2.76761719 4.556875 1.3828125 5.125 C-1 6 -1 6 -3 6 C-3 5.34 -3 4.68 -3 4 C-2.01 4 -1.02 4 0 4 C0 2.68 0 1.36 0 0 Z " fill="#2B2D2C" transform="translate(257,85)"/>
<path d="M0 0 C1.32 0.66 2.64 1.32 4 2 C-2.75 6 -2.75 6 -5 6 C-5 5.34 -5 4.68 -5 4 C-4.34 4 -3.68 4 -3 4 C-3 3.34 -3 2.68 -3 2 C-2.01 1.34 -1.02 0.68 0 0 Z " fill="#212627" transform="translate(198,115)"/>
<path d="M0 0 C-0.33 0.99 -0.66 1.98 -1 3 C-2.70703125 3.765625 -2.70703125 3.765625 -4.8125 4.25 C-5.49957031 4.42015625 -6.18664062 4.5903125 -6.89453125 4.765625 C-9.19499821 5.02170666 -10.80629727 4.69015367 -13 4 C-11.2097939 3.32942113 -9.41778511 2.6636531 -7.625 2 C-6.62726563 1.62875 -5.62953125 1.2575 -4.6015625 0.875 C-2 0 -2 0 0 0 Z " fill="#C5759A" transform="translate(309,70)"/>
<path d="M0 0 C0.99 0.33 1.98 0.66 3 1 C-0.96 4.465 -0.96 4.465 -5 8 C-5.33 7.01 -5.66 6.02 -6 5 C-5.195625 4.54625 -4.39125 4.0925 -3.5625 3.625 C-0.91143428 2.25274335 -0.91143428 2.25274335 0 0 Z " fill="#32272E" transform="translate(95,184)"/>
<path d="M0 0 C3.91211733 1.15585285 6.8745041 2.35534962 10 5 C6.53058454 4.54177532 3.32604951 4.10868317 0 3 C0 2.01 0 1.02 0 0 Z " fill="#E27AA6" transform="translate(854,105)"/>
<path d="M0 0 C3.63 0 7.26 0 11 0 C6.60171741 2.1991413 3.81449408 2.51855059 -1 3 C-0.67 2.01 -0.34 1.02 0 0 Z " fill="#342D2F" transform="translate(375,48)"/>
<path d="M0 0 C0.80824219 0.10183594 1.61648438 0.20367187 2.44921875 0.30859375 C3.06410156 0.39238281 3.67898438 0.47617187 4.3125 0.5625 C4.3125 0.8925 4.3125 1.2225 4.3125 1.5625 C-1.6275 2.0575 -1.6275 2.0575 -7.6875 2.5625 C-7.6875 1.9025 -7.6875 1.2425 -7.6875 0.5625 C-4.59271121 -0.46909626 -3.16118607 -0.41232862 0 0 Z " fill="#3C3138" transform="translate(471.6875,33.4375)"/>
<path d="M0 0 C1.65 0.33 3.3 0.66 5 1 C3.35 2.98 1.7 4.96 0 7 C-1.04449911 3.86650268 -0.93423645 3.01031744 0 0 Z " fill="#272B28" transform="translate(17,253)"/>
<path d="M0 0 C0.66 0.33 1.32 0.66 2 1 C1.67 1.66 1.34 2.32 1 3 C0.01 3 -0.98 3 -2 3 C-2 3.66 -2 4.32 -2 5 C-3.65 4.67 -5.3 4.34 -7 4 C-4.61426621 2.10786631 -2.92824652 0.97608217 0 0 Z " fill="#D5749E" transform="translate(285,78)"/>
<path d="M0 0 C-0.33 0.99 -0.66 1.98 -1 3 C-4.3 3 -7.6 3 -11 3 C-6.93675441 0.9683772 -4.47525541 0 0 0 Z " fill="#C9739A" transform="translate(363,54)"/>
<path d="M0 0 C1.98 0 3.96 0 6 0 C6.66 1.32 7.32 2.64 8 4 C4.31245243 3.50168276 2.39509338 2.89932357 0 0 Z " fill="#272A2B" transform="translate(953,163)"/>
<path d="M0 0 C3.96 1.98 3.96 1.98 8 4 C7.01 4.66 6.02 5.32 5 6 C3.0625 5.25 3.0625 5.25 1 4 C0.67 2.68 0.34 1.36 0 0 Z " fill="#DB79A9" transform="translate(922,143)"/>
<path d="M0 0 C-2.002501 2.002501 -3.406659 2.93215371 -6 4 C-7.32 4 -8.64 4 -10 4 C-7.75282684 -0.49434631 -4.47478037 -0.19887913 0 0 Z " fill="#F278B3" transform="translate(506,33)"/>
<path d="M0 0 C1 3 1 3 0.0625 5.1875 C-0.4634375 6.0846875 -0.4634375 6.0846875 -1 7 C-1.99 6.67 -2.98 6.34 -4 6 C-2.68 4.02 -1.36 2.04 0 0 Z " fill="#D776A1" transform="translate(6,271)"/>
<path d="M0 0 C1.65 0.33 3.3 0.66 5 1 C3.35 2.65 1.7 4.3 0 6 C0 5.34 0 4.68 0 4 C-0.66 4 -1.32 4 -2 4 C-2 3.34 -2 2.68 -2 2 C-1.34 2 -0.68 2 0 2 C0 1.34 0 0.68 0 0 Z " fill="#202D2A" transform="translate(22,248)"/>
<path d="M0 0 C0.66 0.33 1.32 0.66 2 1 C1.34 2.32 0.68 3.64 0 5 C-0.66 5 -1.32 5 -2 5 C-2.33 5.66 -2.66 6.32 -3 7 C-3.66 6.34 -4.32 5.68 -5 5 C-3.625 3.5 -3.625 3.5 -2 2 C-1.34 2 -0.68 2 0 2 C0 1.34 0 0.68 0 0 Z " fill="#CC7196" transform="translate(41,234)"/>
<path d="M0 0 C0.33 0.66 0.66 1.32 1 2 C0.01 3.32 -0.98 4.64 -2 6 C-3.32 5.67 -4.64 5.34 -6 5 C-4.02 3.35 -2.04 1.7 0 0 Z " fill="#D179A0" transform="translate(70,208)"/>
<path d="M0 0 C0 0.66 0 1.32 0 2 C2.475 2.99 2.475 2.99 5 4 C5 4.66 5 5.32 5 6 C1.54074837 4.7508258 -1.14693203 3.32472205 -4 1 C-2 0 -2 0 0 0 Z " fill="#242B2B" transform="translate(885,117)"/>
<path d="M0 0 C3.3 0.99 6.6 1.98 10 3 C10 3.33 10 3.66 10 4 C3.49618902 4.36814024 3.49618902 4.36814024 1.0625 2.5625 C0 1 0 1 0 0 Z " fill="#D87AA6" transform="translate(782,74)"/>
<path d="M0 0 C0.99 0.33 1.98 0.66 3 1 C0.25 5.875 0.25 5.875 -2 7 C-2 5.68 -2 4.36 -2 3 C-1.34 3 -0.68 3 0 3 C0 2.01 0 1.02 0 0 Z " fill="#2E282B" transform="translate(2,271)"/>
<path d="M0 0 C4.875 4.75 4.875 4.75 6 7 C4.35 6.67 2.7 6.34 1 6 C0.67 4.02 0.34 2.04 0 0 Z " fill="#CD749A" transform="translate(1065,262)"/>
<path d="M0 0 C2.31 0.33 4.62 0.66 7 1 C5.68 2.32 4.36 3.64 3 5 C2.01 3.35 1.02 1.7 0 0 Z " fill="#14251B" transform="translate(26,241)"/>
<path d="M0 0 C1.98 0.66 3.96 1.32 6 2 C6 2.99 6 3.98 6 5 C3.08482708 3.92598892 1.22189824 3.22189824 -1 1 C-0.67 0.67 -0.34 0.34 0 0 Z " fill="#29282B" transform="translate(900,127)"/>
<path d="M0 0 C5.75 1.75 5.75 1.75 8 4 C7.01 4.495 7.01 4.495 6 5 C3.96855359 4.06553465 1.96466413 3.06775224 0 2 C0 1.34 0 0.68 0 0 Z " fill="#D676A0" transform="translate(870,113)"/>
<path d="M0 0 C0.78375 0.04125 1.5675 0.0825 2.375 0.125 C2.045 1.445 1.715 2.765 1.375 4.125 C-0.605 3.465 -2.585 2.805 -4.625 2.125 C-2.625 0.125 -2.625 0.125 0 0 Z " fill="#222B28" transform="translate(852.625,99.875)"/>
</svg>